{
  "accessors": [
    {
      "bufferView": 2,
      "componentType": 5126,
      "count": 2736,
      "max": [
        761.37109375,
        212.5538787841797,
        98.92657470703125
      ],
      "min": [
        -66.32154083251953,
        -11.446115493774414,
        -158.83404541015625
      ],
      "type": "VEC3"
    },
    {
      "bufferView": 2,
      "byteOffset": 32832,
      "componentType": 5126,
      "count": 2736,
      "max": [
        1.0,
        1.0,
        1.0
      ],
      "min": [
        -1.0,
        -1.0,
        -1.0
      ],
      "type": "VEC3"
    },
    {
      "bufferView": 3,
      "componentType": 5126,
      "count": 2736,
      "max": [
        1.0,
        1.0,
        1.0,
        1.0
      ],
      "min": [
        -1.0,
        -0.9675382971763611,
        -1.0,
        -1.0
      ],
      "type": "VEC4"
    },
    {
      "bufferView": 1,
      "componentType": 5126,
      "count": 2736,
      "max": [
        0.9990191459655762,
        0.9990191459655762
      ],
      "min": [
        0.0009808657923713326,
        0.16779351234436035
      ],
      "type": "VEC2"
    },
    {
      "bufferView": 0,
      "componentType": 5125,
      "count": 5112,
      "type": "SCALAR"
    },
    {
      "bufferView": 2,
      "byteOffset": 65664,
      "componentType": 5126,
      "count": 11675,
      "max": [
        756.8291625976563,
        197.30738830566406,
        103.1653823852539
      ],
      "min": [
        -61.63300323486328,
        11.446115493774414,
        91.6562728881836
      ],
      "type": "VEC3"
    },
    {
      "bufferView": 2,
      "byteOffset": 205764,
      "componentType": 5126,
      "count": 11675,
      "max": [
        1.0,
        1.0,
        1.0
      ],
      "min": [
        -1.0,
        -1.0,
        -1.0
      ],
      "type": "VEC3"
    },
    {
      "bufferView": 3,
      "byteOffset": 43776,
      "componentType": 5126,
      "count": 11675,
      "max": [
        1.0,
        1.0,
        1.0,
        1.0
      ],
      "min": [
        -1.0,
        -1.0,
        -1.0,
        -1.0
      ],
      "type": "VEC4"
    },
    {
      "bufferView": 1,
      "byteOffset": 21888,
      "componentType": 5126,
      "count": 11675,
      "max": [
        0.9951696991920471,
        0.998859703540802
      ],
      "min": [
        0.0011402865638956428,
        0.0011403560638427734
      ],
      "type": "VEC2"
    },
    {
      "bufferView": 0,
      "byteOffset": 20448,
      "componentType": 5125,
      "count": 46395,
      "type": "SCALAR"
    },
    {
      "bufferView": 2,
      "byteOffset": 345864,
      "componentType": 5126,
      "count": 6743,
      "max": [
        761.37109375,
        182.64149475097656,
        97.69503021240234
      ],
      "min": [
        -66.32154083251953,
        -11.446115493774414,
        -81.36591339111328
      ],
      "type": "VEC3"
    },
    {
      "bufferView": 2,
      "byteOffset": 426780,
      "componentType": 5126,
      "count": 6743,
      "max": [
        0.9996851086616516,
        1.0,
        1.0
      ],
      "min": [
        -0.9996851086616516,
        -1.0,
        -0.9996179342269897
      ],
      "type": "VEC3"
    },
    {
      "bufferView": 3,
      "byteOffset": 230576,
      "componentType": 5126,
      "count": 6743,
      "max": [
        1.0,
        1.0,
        0.9569931626319885,
        1.0
      ],
      "min": [
        -0.9998894929885864,
        -1.0,
        -0.9996296763420105,
        -1.0
      ],
      "type": "VEC4"
    },
    {
      "bufferView": 1,
      "byteOffset": 115288,
      "componentType": 5126,
      "count": 6743,
      "max": [
        0.9242679476737976,
        0.15259063243865967
      ],
      "min": [
        0.1295739710330963,
        0.03274810314178467
      ],
      "type": "VEC2"
    },
    {
      "bufferView": 0,
      "byteOffset": 206028,
      "componentType": 5125,
      "count": 23892,
      "type": "SCALAR"
    },
    {
      "bufferView": 2,
      "byteOffset": 507696,
      "componentType": 5126,
      "count": 2335,
      "max": [
        0.5076090693473816,
        197.30738830566406,
        8.443750381469727
      ],
      "min": [
        -127.95454406738281,
        11.446115493774414,
        -3.0653574466705322
      ],
      "type": "VEC3"
    },
    {
      "bufferView": 2,
      "byteOffset": 535716,
      "componentType": 5126,
      "count": 2335,
      "max": [
        1.0,
        1.0,
        1.0
      ],
      "min": [
        -1.0,
        -1.0,
        -1.0
      ],
      "type": "VEC3"
    },
    {
      "bufferView": 3,
      "byteOffset": 338464,
      "componentType": 5126,
      "count": 2335,
      "max": [
        1.0,
        1.0,
        1.0,
        1.0
      ],
      "min": [
        -1.0,
        -1.0,
        -1.0,
        -1.0
      ],
      "type": "VEC4"
    },
    {
      "bufferView": 1,
      "byteOffset": 169232,
      "componentType": 5126,
      "count": 2335,
      "max": [
        0.9951696991920471,
        0.998859703540802
      ],
      "min": [
        0.0011402865638956428,
        0.0011403560638427734
      ],
      "type": "VEC2"
    },
    {
      "bufferView": 0,
      "byteOffset": 301596,
      "componentType": 5125,
      "count": 9279,
      "type": "SCALAR"
    },
    {
      "bufferView": 2,
      "byteOffset": 563736,
      "componentType": 5126,
      "count": 1315,
      "max": [
        2.5158889293670654,
        182.64149475097656,
        2.204939365386963
      ],
      "min": [
        -130.64308166503906,
        8.553884506225586,
        -0.7950605154037476
      ],
      "type": "VEC3"
    },
    {
      "bufferView": 2,
      "byteOffset": 579516,
      "componentType": 5126,
      "count": 1315,
      "max": [
        0.9996851086616516,
        1.0,
        0.9996179342269897
      ],
      "min": [
        -0.9996851086616516,
        -1.0,
        -0.9996179342269897
      ],
      "type": "VEC3"
    },
    {
      "bufferView": 3,
      "byteOffset": 375824,
      "componentType": 5126,
      "count": 1315,
      "max": [
        1.0,
        1.0,
        0.9569920301437378,
        1.0
      ],
      "min": [
        -0.9998894333839417,
        -1.0,
        -0.9996179342269897,
        -1.0
      ],
      "type": "VEC4"
    },
    {
      "bufferView": 1,
      "byteOffset": 187912,
      "componentType": 5126,
      "count": 1315,
      "max": [
        0.9242679476737976,
        0.15259063243865967
      ],
      "min": [
        0.1295739710330963,
        0.03274810314178467
      ],
      "type": "VEC2"
    },
    {
      "bufferView": 0,
      "byteOffset": 338712,
      "componentType": 5125,
      "count": 4728,
      "type": "SCALAR"
    },
    {
      "bufferView": 2,
      "byteOffset": 595296,
      "componentType": 5126,
      "count": 1799,
      "max": [
        137.69261169433594,
        224.0,
        193.64820861816406
      ],
      "min": [
        0.0,
        -1.4210854715202004e-14,
        -64.11241149902344
      ],
      "type": "VEC3"
    },
    {
      "bufferView": 2,
      "byteOffset": 616884,
      "componentType": 5126,
      "count": 1799,
      "max": [
        1.0,
        1.0,
        1.0
      ],
      "min": [
        -1.0,
        -1.0,
        -1.0
      ],
      "type": "VEC3"
    },
    {
      "bufferView": 3,
      "byteOffset": 396864,
      "componentType": 5126,
      "count": 1799,
      "max": [
        1.0,
        1.0,
        1.0,
        1.0
      ],
      "min": [
        -1.0,
        -1.0,
        -1.0,
        -1.0
      ],
      "type": "VEC4"
    },
    {
      "bufferView": 1,
      "byteOffset": 198432,
      "componentType": 5126,
      "count": 1799,
      "max": [
        0.9990191459655762,
        0.9990191459655762
      ],
      "min": [
        0.0009808657923713326,
        0.03274810314178467
      ],
      "type": "VEC2"
    },
    {
      "bufferView": 0,
      "byteOffset": 357624,
      "componentType": 5125,
      "count": 5622,
      "type": "SCALAR"
    },
    {
      "bufferView": 2,
      "byteOffset": 638472,
      "componentType": 5126,
      "count": 2335,
      "max": [
        0.5076091885566711,
        185.86126708984375,
        8.443750381469727
      ],
      "min": [
        -127.95454406738281,
        -2.2367885321727954e-11,
        -3.0653574466705322
      ],
      "type": "VEC3"
    },
    {
      "bufferView": 2,
      "byteOffset": 666492,
      "componentType": 5126,
      "count": 2335,
      "max": [
        1.0,
        1.0,
        1.0
      ],
      "min": [
        -1.0,
        -1.0,
        -1.0
      ],
      "type": "VEC3"
    },
    {
      "bufferView": 3,
      "byteOffset": 425648,
      "componentType": 5126,
      "count": 2335,
      "max": [
        1.0,
        1.0,
        1.0,
        1.0
      ],
      "min": [
        -1.0,
        -1.0,
        -1.0,
        -1.0
      ],
      "type": "VEC4"
    },
    {
      "bufferView": 1,
      "byteOffset": 212824,
      "componentType": 5126,
      "count": 2335,
      "max": [
        0.9951696991920471,
        0.998859703540802
      ],
      "min": [
        0.0011402865638956428,
        0.0011403560638427734
      ],
      "type": "VEC2"
    },
    {
      "bufferView": 0,
      "byteOffset": 380112,
      "componentType": 5125,
      "count": 9279,
      "type": "SCALAR"
    }
  ],
  "asset": {
    "extras": {
      "author": "Mehdi Shahsavan (https://sketchfab.com/ahmagh2e)",
      "license": "CC-BY-4.0 (http://creativecommons.org/licenses/by/4.0/)",
      "source": "https://sketchfab.com/3d-models/wc-10mb-88862bb1d6794d13b77cdf463764f257",
      "title": "Wc -10MB"
    },
    "generator": "Sketchfab-16.15.0",
    "version": "2.0"
  },
  "bufferViews": [
    {
      "buffer": 0,
      "byteLength": 417228,
      "name": "floatBufferViews",
      "target": 34963
    },
    {
      "buffer": 0,
      "byteLength": 231504,
      "byteOffset": 417228,
      "byteStride": 8,
      "name": "floatBufferViews",
      "target": 34962
    },
    {
      "buffer": 0,
      "byteLength": 694512,
      "byteOffset": 648732,
      "byteStride": 12,
      "name": "floatBufferViews",
      "target": 34962
    },
    {
      "buffer": 0,
      "byteLength": 463008,
      "byteOffset": 1343244,
      "byteStride": 16,
      "name": "floatBufferViews",
      "target": 34962
    }
  ],
  "buffers": [
    {
      "byteLength": 1806252,
      "uri": "scene.bin"
    }
  ],
  "images": [
    {
      "uri": "textures/base_baseColor.png"
    },
    {
      "uri": "textures/base_metallicRoughness.png"
    },
    {
      "uri": "textures/base_normal.png"
    },
    {
      "uri": "textures/door_baseColor.png"
    },
    {
      "uri": "textures/door_metallicRoughness.png"
    },
    {
      "uri": "textures/door_normal.png"
    }
  ],
  "materials": [
    {
      "doubleSided": true,
      "name": "base",
      "normalTexture": {
        "index": 2
      },
      "pbrMetallicRoughness": {
        "baseColorTexture": {
          "index": 0
        },
        "metallicRoughnessTexture": {
          "index": 1
        }
      }
    },
    {
      "doubleSided": true,
      "name": "door",
      "normalTexture": {
        "index": 5
      },
      "pbrMetallicRoughness": {
        "baseColorTexture": {
          "index": 3
        },
        "metallicRoughnessTexture": {
          "index": 4
        }
      }
    }
  ],
  "meshes": [
    {
      "name": "Cloner_base_0",
      "primitives": [
        {
          "attributes": {
            "NORMAL": 1,
            "POSITION": 0,
            "TANGENT": 2,
            "TEXCOORD_0": 3
          },
          "indices": 4,
          "material": 0,
          "mode": 4
        }
      ]
    },
    {
      "name": "Cloner_1_door_0",
      "primitives": [
        {
          "attributes": {
            "NORMAL": 6,
            "POSITION": 5,
            "TANGENT": 7,
            "TEXCOORD_0": 8
          },
          "indices": 9,
          "material": 1,
          "mode": 4
        }
      ]
    },
    {
      "name": "Cloner_1_base_0",
      "primitives": [
        {
          "attributes": {
            "NORMAL": 11,
            "POSITION": 10,
            "TANGENT": 12,
            "TEXCOORD_0": 13
          },
          "indices": 14,
          "material": 0,
          "mode": 4
        }
      ]
    },
    {
      "name": "Cloner_2_door_0",
      "primitives": [
        {
          "attributes": {
            "NORMAL": 16,
            "POSITION": 15,
            "TANGENT": 17,
            "TEXCOORD_0": 18
          },
          "indices": 19,
          "material": 1,
          "mode": 4
        }
      ]
    },
    {
      "name": "Cloner_2_base_0",
      "primitives": [
        {
          "attributes": {
            "NORMAL": 21,
            "POSITION": 20,
            "TANGENT": 22,
            "TEXCOORD_0": 23
          },
          "indices": 24,
          "material": 0,
          "mode": 4
        }
      ]
    },
    {
      "name": "base_base_0",
      "primitives": [
        {
          "attributes": {
            "NORMAL": 26,
            "POSITION": 25,
            "TANGENT": 27,
            "TEXCOORD_0": 28
          },
          "indices": 29,
          "material": 0,
          "mode": 4
        }
      ]
    },
    {
      "name": "door_door_0",
      "primitives": [
        {
          "attributes": {
            "NORMAL": 31,
            "POSITION": 30,
            "TANGENT": 32,
            "TEXCOORD_0": 33
          },
          "indices": 34,
          "material": 1,
          "mode": 4
        }
      ]
    }
  ],
  "nodes": [
    {
      "children": [
        1
      ],
      "matrix": [
        1.0,
        0.0,
        0.0,
        0.0,
        0.0,
        2.220446049250313e-16,
        -1.0,
        0.0,
        0.0,
        1.0,
        2.220446049250313e-16,
        0.0,
        0.0,
        0.0,
        0.0,
        1.0
      ],
      "name": "Sketchfab_model"
    },
    {
      "children": [
        2
      ],
      "matrix": [
        0.009999999776482582,
        0.0,
        0.0,
        0.0,
        0.0,
        0.0,
        0.009999999776482582,
        0.0,
        0.0,
        -0.009999999776482582,
        0.0,
        0.0,
        0.0,
        0.0,
        0.0,
        1.0
      ],
      "name": "86b37a640eb74227bd765135451fef8a.fbx"
    },
    {
      "children": [
        3,
        5,
        7,
        10,
        13
      ],
      "name": "RootNode"
    },
    {
      "children": [
        4
      ],
      "matrix": [
        0.3948699724969651,
        -0.013589052736717329,
        -0.9186365127001891,
        0.0,
        0.005366404389718226,
        0.9999076645599426,
        -0.012484552783632166,
        0.0,
        0.9187213432397073,
        6.071532165918825e-18,
        0.39490643635654765,
        0.0,
        -141.48138427734375,
        151.19039916992188,
        887.021240234375,
        1.0
      ],
      "name": "CINEMA_4D_Editor"
    },
    {
      "name": "Object_4"
    },
    {
      "children": [
        6
      ],
      "matrix": [
        1.0,
        0.0,
        0.0,
        0.0,
        0.0,
        1.0,
        0.0,
        0.0,
        0.0,
        0.0,
        1.0,
        0.0,
        -18.871078491210938,
        11.446115493774414,
        -21.426572799682617,
        1.0
      ],
      "name": "Cloner"
    },
    {
      "mesh": 0,
      "name": "Cloner_base_0"
    },
    {
      "children": [
        8,
        9
      ],
      "matrix": [
        1.0,
        0.0,
        0.0,
        0.0,
        0.0,
        1.0,
        0.0,
        0.0,
        0.0,
        0.0,
        1.0,
        0.0,
        -18.871078491210938,
        11.446115493774414,
        -21.426572799682617,
        1.0
      ],
      "name": "Cloner_1"
    },
    {
      "mesh": 1,
      "name": "Cloner_1_door_0"
    },
    {
      "mesh": 2,
      "name": "Cloner_1_base_0"
    },
    {
      "children": [
        11,
        12
      ],
      "matrix": [
        0.4729755828820559,
        0.0,
        0.8810755347854005,
        0.0,
        0.0,
        1.0,
        0.0,
        0.0,
        -0.8810755347854005,
        0.0,
        0.4729755828820559,
        0.0,
        461.4504699707031,
        11.446115493774414,
        73.29505920410156,
        1.0
      ],
      "name": "Cloner_2"
    },
    {
      "mesh": 3,
      "name": "Cloner_2_door_0"
    },
    {
      "mesh": 4,
      "name": "Cloner_2_base_0"
    },
    {
      "children": [
        14,
        16
      ],
      "matrix": [
        1.0,
        0.0,
        0.0,
        0.0,
        0.0,
        1.0,
        0.0,
        0.0,
        0.0,
        0.0,
        1.0,
        0.0,
        -334.5224304199219,
        11.446115493774414,
        -21.426572799682617,
        1.0
      ],
      "name": "01"
    },
    {
      "children": [
        15
      ],
      "matrix": [
        1.0,
        0.0,
        0.0,
        0.0,
        0.0,
        1.0,
        0.0,
        0.0,
        0.0,
        0.0,
        1.0,
        0.0,
        -66.32154083251953,
        -11.446115493774414,
        -94.72163391113281,
        1.0
      ],
      "name": "base"
    },
    {
      "mesh": 5,
      "name": "base_base_0"
    },
    {
      "children": [
        17
      ],
      "matrix": [
        1.0,
        0.0,
        0.0,
        0.0,
        0.0,
        1.0,
        0.0,
        0.0,
        0.0,
        0.0,
        1.0,
        0.0,
        66.32154083251953,
        11.446115493774414,
        94.72163391113281,
        1.0
      ],
      "name": "door"
    },
    {
      "mesh": 6,
      "name": "door_door_0"
    }
  ],
  "samplers": [
    {
      "magFilter": 9729,
      "minFilter": 9987,
      "wrapS": 10497,
      "wrapT": 10497
    }
  ],
  "scene": 0,
  "scenes": [
    {
      "name": "Sketchfab_Scene",
      "nodes": [
        0
      ]
    }
  ],
  "textures": [
    {
      "sampler": 0,
      "source": 0
    },
    {
      "sampler": 0,
      "source": 1
    },
    {
      "sampler": 0,
      "source": 2
    },
    {
      "sampler": 0,
      "source": 3
    },
    {
      "sampler": 0,
      "source": 4
    },
    {
      "sampler": 0,
      "source": 5
    }
  ]
}
