{
  "accessors": [
    {
      "bufferView": 2,
      "componentType": 5126,
      "count": 106,
      "max": [
        141.40567016601563,
        3.7589221000671387,
        139.14183044433594
      ],
      "min": [
        -141.40565490722656,
        -5.867332220077515e-07,
        -143.66946411132813
      ],
      "type": "VEC3"
    },
    {
      "bufferView": 2,
      "byteOffset": 1272,
      "componentType": 5126,
      "count": 106,
      "max": [
        1.0,
        1.0,
        1.0
      ],
      "min": [
        -1.0,
        -1.0,
        -1.0
      ],
      "type": "VEC3"
    },
    {
      "bufferView": 1,
      "componentType": 5126,
      "count": 106,
      "max": [
        0.5164373517036438,
        0.6367197036743164
      ],
      "min": [
        0.005899697542190552,
        0.166384756565094
      ],
      "type": "VEC2"
    },
    {
      "bufferView": 1,
      "byteOffset": 848,
      "componentType": 5126,
      "count": 106,
      "max": [
        0.5164373517036438,
        0.6367197036743164
      ],
      "min": [
        0.005899697542190552,
        0.166384756565094
      ],
      "type": "VEC2"
    },
    {
      "bufferView": 0,
      "componentType": 5125,
      "count": 288,
      "type": "SCALAR"
    },
    {
      "bufferView": 2,
      "byteOffset": 2544,
      "componentType": 5126,
      "count": 1704,
      "max": [
        69.77476501464844,
        261.8827819824219,
        110.67707824707031
      ],
      "min": [
        -131.97244262695313,
        3.717935562133789,
        -116.21778869628906
      ],
      "type": "VEC3"
    },
    {
      "bufferView": 2,
      "byteOffset": 22992,
      "componentType": 5126,
      "count": 1704,
      "max": [
        1.0,
        1.0,
        0.9999999403953552
      ],
      "min": [
        -1.0,
        -1.0,
        -0.9999999403953552
      ],
      "type": "VEC3"
    },
    {
      "bufferView": 1,
      "byteOffset": 1696,
      "componentType": 5126,
      "count": 1704,
      "max": [
        0.9924838542938232,
        0.943126916885376
      ],
      "min": [
        0.005899667739868164,
        0.005703389644622803
      ],
      "type": "VEC2"
    },
    {
      "bufferView": 1,
      "byteOffset": 15328,
      "componentType": 5126,
      "count": 1704,
      "max": [
        0.9924838542938232,
        0.943126916885376
      ],
      "min": [
        0.005899667739868164,
        0.005703389644622803
      ],
      "type": "VEC2"
    },
    {
      "bufferView": 0,
      "byteOffset": 1152,
      "componentType": 5125,
      "count": 3738,
      "type": "SCALAR"
    },
    {
      "bufferView": 2,
      "byteOffset": 43440,
      "componentType": 5126,
      "count": 590,
      "max": [
        161.88693237304688,
        329.3629455566406,
        159.623046875
      ],
      "min": [
        -161.88687133789063,
        3.698868751525879,
        -164.15069580078125
      ],
      "type": "VEC3"
    },
    {
      "bufferView": 2,
      "byteOffset": 50520,
      "componentType": 5126,
      "count": 590,
      "max": [
        1.0,
        1.0,
        1.0
      ],
      "min": [
        -1.0,
        -1.0,
        -1.0
      ],
      "type": "VEC3"
    },
    {
      "bufferView": 1,
      "byteOffset": 28960,
      "componentType": 5126,
      "count": 590,
      "max": [
        0.9858546257019043,
        0.9982872009277344
      ],
      "min": [
        0.005899667739868164,
        0.00570341944694519
      ],
      "type": "VEC2"
    },
    {
      "bufferView": 1,
      "byteOffset": 33680,
      "componentType": 5126,
      "count": 590,
      "max": [
        0.9858546257019043,
        0.9982872009277344
      ],
      "min": [
        0.005899667739868164,
        0.00570341944694519
      ],
      "type": "VEC2"
    },
    {
      "bufferView": 0,
      "byteOffset": 16104,
      "componentType": 5125,
      "count": 1560,
      "type": "SCALAR"
    },
    {
      "bufferView": 2,
      "byteOffset": 57600,
      "componentType": 5126,
      "count": 96,
      "max": [
        136.58741760253906,
        3.7589221000671387,
        138.81228637695313
      ],
      "min": [
        -136.58738708496094,
        -5.867332220077515e-07,
        -143.9990234375
      ],
      "type": "VEC3"
    },
    {
      "bufferView": 2,
      "byteOffset": 58752,
      "componentType": 5126,
      "count": 96,
      "max": [
        0.9889245629310608,
        1.0,
        1.0
      ],
      "min": [
        -0.9897074699401855,
        -1.0,
        -1.0
      ],
      "type": "VEC3"
    },
    {
      "bufferView": 1,
      "byteOffset": 38400,
      "componentType": 5126,
      "count": 96,
      "max": [
        0.5164373517036438,
        0.6367197036743164
      ],
      "min": [
        0.005899697542190552,
        0.166384756565094
      ],
      "type": "VEC2"
    },
    {
      "bufferView": 1,
      "byteOffset": 39168,
      "componentType": 5126,
      "count": 96,
      "max": [
        0.5164373517036438,
        0.6367197036743164
      ],
      "min": [
        0.005899697542190552,
        0.166384756565094
      ],
      "type": "VEC2"
    },
    {
      "bufferView": 0,
      "byteOffset": 22344,
      "componentType": 5125,
      "count": 252,
      "type": "SCALAR"
    },
    {
      "bufferView": 2,
      "byteOffset": 59904,
      "componentType": 5126,
      "count": 1616,
      "max": [
        69.77476501464844,
        261.8827819824219,
        110.347412109375
      ],
      "min": [
        -131.97244262695313,
        3.718045234680176,
        -116.54742431640625
      ],
      "type": "VEC3"
    },
    {
      "bufferView": 2,
      "byteOffset": 79296,
      "componentType": 5126,
      "count": 1616,
      "max": [
        1.0,
        1.0,
        0.9999999403953552
      ],
      "min": [
        -1.0,
        -1.0,
        -1.0
      ],
      "type": "VEC3"
    },
    {
      "bufferView": 1,
      "byteOffset": 39936,
      "componentType": 5126,
      "count": 1616,
      "max": [
        0.9924838542938232,
        0.943126916885376
      ],
      "min": [
        0.005899667739868164,
        0.005703389644622803
      ],
      "type": "VEC2"
    },
    {
      "bufferView": 1,
      "byteOffset": 52864,
      "componentType": 5126,
      "count": 1616,
      "max": [
        0.9924838542938232,
        0.943126916885376
      ],
      "min": [
        0.005899667739868164,
        0.005703389644622803
      ],
      "type": "VEC2"
    },
    {
      "bufferView": 0,
      "byteOffset": 23352,
      "componentType": 5125,
      "count": 3504,
      "type": "SCALAR"
    },
    {
      "bufferView": 2,
      "byteOffset": 98688,
      "componentType": 5126,
      "count": 504,
      "max": [
        156.3708038330078,
        329.3629455566406,
        153.7772979736328
      ],
      "min": [
        -156.3707275390625,
        3.698868751525879,
        -158.96420288085938
      ],
      "type": "VEC3"
    },
    {
      "bufferView": 2,
      "byteOffset": 104736,
      "componentType": 5126,
      "count": 504,
      "max": [
        0.9897257685661316,
        1.0,
        0.989931583404541
      ],
      "min": [
        -0.9897257685661316,
        -1.0,
        -0.9895727038383484
      ],
      "type": "VEC3"
    },
    {
      "bufferView": 1,
      "byteOffset": 65792,
      "componentType": 5126,
      "count": 504,
      "max": [
        0.9858546257019043,
        0.9982872009277344
      ],
      "min": [
        0.005899667739868164,
        0.00570341944694519
      ],
      "type": "VEC2"
    },
    {
      "bufferView": 1,
      "byteOffset": 69824,
      "componentType": 5126,
      "count": 504,
      "max": [
        0.9858546257019043,
        0.9982872009277344
      ],
      "min": [
        0.005899667739868164,
        0.00570341944694519
      ],
      "type": "VEC2"
    },
    {
      "bufferView": 0,
      "byteOffset": 37368,
      "componentType": 5125,
      "count": 1260,
      "type": "SCALAR"
    },
    {
      "bufferView": 2,
      "byteOffset": 110784,
      "componentType": 5126,
      "count": 58,
      "max": [
        136.58741760253906,
        3.7589221000671387,
        134.9244842529297
      ],
      "min": [
        -136.58738708496094,
        -5.867332220077515e-07,
        -138.25030517578125
      ],
      "type": "VEC3"
    },
    {
      "bufferView": 2,
      "byteOffset": 111480,
      "componentType": 5126,
      "count": 58,
      "max": [
        0.965925931930542,
        1.0,
        0.9659256935119629
      ],
      "min": [
        -0.965925931930542,
        -1.0,
        -0.9659257531166077
      ],
      "type": "VEC3"
    },
    {
      "bufferView": 1,
      "byteOffset": 73856,
      "componentType": 5126,
      "count": 58,
      "max": [
        0.5126197338104248,
        0.6329020857810974
      ],
      "min": [
        0.005899697542190552,
        0.166384756565094
      ],
      "type": "VEC2"
    },
    {
      "bufferView": 1,
      "byteOffset": 74320,
      "componentType": 5126,
      "count": 58,
      "max": [
        0.5126197338104248,
        0.6329020857810974
      ],
      "min": [
        0.005899697542190552,
        0.166384756565094
      ],
      "type": "VEC2"
    },
    {
      "bufferView": 0,
      "byteOffset": 42408,
      "componentType": 5125,
      "count": 144,
      "type": "SCALAR"
    },
    {
      "bufferView": 2,
      "byteOffset": 112176,
      "componentType": 5126,
      "count": 1426,
      "max": [
        69.77476501464844,
        261.8827819824219,
        111.27794647216797
      ],
      "min": [
        -131.97244262695313,
        3.7180402278900146,
        -115.61688995361328
      ],
      "type": "VEC3"
    },
    {
      "bufferView": 2,
      "byteOffset": 129288,
      "componentType": 5126,
      "count": 1426,
      "max": [
        1.0,
        1.0,
        1.0
      ],
      "min": [
        -1.0,
        -1.0,
        -1.0
      ],
      "type": "VEC3"
    },
    {
      "bufferView": 1,
      "byteOffset": 74784,
      "componentType": 5126,
      "count": 1426,
      "max": [
        0.9924838542938232,
        0.943126916885376
      ],
      "min": [
        0.005899667739868164,
        0.005458815023303032
      ],
      "type": "VEC2"
    },
    {
      "bufferView": 1,
      "byteOffset": 86192,
      "componentType": 5126,
      "count": 1426,
      "max": [
        0.9924838542938232,
        0.943126916885376
      ],
      "min": [
        0.005899667739868164,
        0.005458815023303032
      ],
      "type": "VEC2"
    },
    {
      "bufferView": 0,
      "byteOffset": 42984,
      "componentType": 5125,
      "count": 3018,
      "type": "SCALAR"
    },
    {
      "bufferView": 2,
      "byteOffset": 146400,
      "componentType": 5126,
      "count": 354,
      "max": [
        156.3708038330078,
        329.3629455566406,
        154.7078399658203
      ],
      "min": [
        -156.3707275390625,
        3.698868751525879,
        -158.03367614746094
      ],
      "type": "VEC3"
    },
    {
      "bufferView": 2,
      "byteOffset": 150648,
      "componentType": 5126,
      "count": 354,
      "max": [
        0.9736509323120117,
        1.0,
        0.9659259915351868
      ],
      "min": [
        -0.9736509323120117,
        -1.0,
        -0.9659262895584106
      ],
      "type": "VEC3"
    },
    {
      "bufferView": 1,
      "byteOffset": 97600,
      "componentType": 5126,
      "count": 354,
      "max": [
        0.9858546257019043,
        0.9982872009277344
      ],
      "min": [
        0.005899667739868164,
        0.00570341944694519
      ],
      "type": "VEC2"
    },
    {
      "bufferView": 1,
      "byteOffset": 100432,
      "componentType": 5126,
      "count": 354,
      "max": [
        0.9858546257019043,
        0.9982872009277344
      ],
      "min": [
        0.005899667739868164,
        0.00570341944694519
      ],
      "type": "VEC2"
    },
    {
      "bufferView": 0,
      "byteOffset": 55056,
      "componentType": 5125,
      "count": 840,
      "type": "SCALAR"
    }
  ],
  "asset": {
    "extras": {
      "author": "Devden (https://sketchfab.com/Devden)",
      "license": "CC-BY-4.0 (http://creativecommons.org/licenses/by/4.0/)",
      "source": "https://sketchfab.com/3d-models/revolving-door-f577648f4b5349df8759a10019a80408",
      "title": "Revolving Door"
    },
    "generator": "Sketchfab-12.68.0",
    "version": "2.0"
  },
  "bufferViews": [
    {
      "buffer": 0,
      "byteLength": 58416,
      "name": "floatBufferViews",
      "target": 34963
    },
    {
      "buffer": 0,
      "byteLength": 103264,
      "byteOffset": 58416,
      "byteStride": 8,
      "name": "floatBufferViews",
      "target": 34962
    },
    {
      "buffer": 0,
      "byteLength": 154896,
      "byteOffset": 161680,
      "byteStride": 12,
      "name": "floatBufferViews",
      "target": 34962
    }
  ],
  "buffers": [
    {
      "byteLength": 316576,
      "uri": "scene.bin"
    }
  ],
  "images": [
    {
      "uri": "textures/RevolvingDoor_Mat1_baseColor.png"
    },
    {
      "uri": "textures/RevolvingDoor_Mat1_metallicRoughness.png"
    }
  ],
  "materials": [
    {
      "doubleSided": true,
      "name": "RevolvingDoor_Mat1",
      "occlusionTexture": {
        "index": 1
      },
      "pbrMetallicRoughness": {
        "baseColorTexture": {
          "index": 0
        },
        "metallicRoughnessTexture": {
          "index": 1
        },
        "roughnessFactor": 0.30000000000000004
      }
    }
  ],
  "meshes": [
    {
      "name": "RevolvingDoor_Base_LOD0_RevolvingDoor_Mat1_0",
      "primitives": [
        {
          "attributes": {
            "NORMAL": 1,
            "POSITION": 0,
            "TEXCOORD_0": 2,
            "TEXCOORD_1": 3
          },
          "indices": 4,
          "material": 0,
          "mode": 4
        }
      ]
    },
    {
      "name": "RevolvingDoor_MainDoor_LOD0_RevolvingDoor_Mat1_0",
      "primitives": [
        {
          "attributes": {
            "NORMAL": 6,
            "POSITION": 5,
            "TEXCOORD_0": 7,
            "TEXCOORD_1": 8
          },
          "indices": 9,
          "material": 0,
          "mode": 4
        }
      ]
    },
    {
      "name": "RevovlingDoor_DoorFrame_LOD0_RevolvingDoor_Mat1_0",
      "primitives": [
        {
          "attributes": {
            "NORMAL": 11,
            "POSITION": 10,
            "TEXCOORD_0": 12,
            "TEXCOORD_1": 13
          },
          "indices": 14,
          "material": 0,
          "mode": 4
        }
      ]
    },
    {
      "name": "RevolvingDoor_Base_LOD1_RevolvingDoor_Mat1_0",
      "primitives": [
        {
          "attributes": {
            "NORMAL": 16,
            "POSITION": 15,
            "TEXCOORD_0": 17,
            "TEXCOORD_1": 18
          },
          "indices": 19,
          "material": 0,
          "mode": 4
        }
      ]
    },
    {
      "name": "RevolvingDoor_MainDoor_LOD1_RevolvingDoor_Mat1_0",
      "primitives": [
        {
          "attributes": {
            "NORMAL": 21,
            "POSITION": 20,
            "TEXCOORD_0": 22,
            "TEXCOORD_1": 23
          },
          "indices": 24,
          "material": 0,
          "mode": 4
        }
      ]
    },
    {
      "name": "RevovlingDoor_DoorFrame_LOD1_RevolvingDoor_Mat1_0",
      "primitives": [
        {
          "attributes": {
            "NORMAL": 26,
            "POSITION": 25,
            "TEXCOORD_0": 27,
            "TEXCOORD_1": 28
          },
          "indices": 29,
          "material": 0,
          "mode": 4
        }
      ]
    },
    {
      "name": "RevolvingDoor_Base_LOD2_RevolvingDoor_Mat1_0",
      "primitives": [
        {
          "attributes": {
            "NORMAL": 31,
            "POSITION": 30,
            "TEXCOORD_0": 32,
            "TEXCOORD_1": 33
          },
          "indices": 34,
          "material": 0,
          "mode": 4
        }
      ]
    },
    {
      "name": "RevolvingDoor_MainDoor_LOD2_RevolvingDoor_Mat1_0",
      "primitives": [
        {
          "attributes": {
            "NORMAL": 36,
            "POSITION": 35,
            "TEXCOORD_0": 37,
            "TEXCOORD_1": 38
          },
          "indices": 39,
          "material": 0,
          "mode": 4
        }
      ]
    },
    {
      "name": "RevovlingDoor_DoorFrame_LOD2_RevolvingDoor_Mat1_0",
      "primitives": [
        {
          "attributes": {
            "NORMAL": 41,
            "POSITION": 40,
            "TEXCOORD_0": 42,
            "TEXCOORD_1": 43
          },
          "indices": 44,
          "material": 0,
          "mode": 4
        }
      ]
    }
  ],
  "nodes": [
    {
      "children": [
        1
      ],
      "matrix": [
        1.0,
        0.0,
        0.0,
        0.0,
        0.0,
        2.220446049250313e-16,
        -1.0,
        0.0,
        0.0,
        1.0,
        2.220446049250313e-16,
        0.0,
        0.0,
        0.0,
        0.0,
        1.0
      ],
      "name": "Sketchfab_model"
    },
    {
      "children": [
        2
      ],
      "matrix": [
        0.009999999776482582,
        0.0,
        0.0,
        0.0,
        0.0,
        0.0,
        0.009999999776482582,
        0.0,
        0.0,
        -0.009999999776482582,
        0.0,
        0.0,
        0.0,
        0.0,
        0.0,
        1.0
      ],
      "name": "c477a74ae3d1455dbd21637398ee928e.fbx"
    },
    {
      "children": [
        3
      ],
      "name": "RootNode"
    },
    {
      "children": [
        4,
        6,
        8,
        10,
        12,
        14,
        16,
        18,
        20
      ],
      "name": "Global_Control"
    },
    {
      "children": [
        5
      ],
      "name": "RevolvingDoor_Base_LOD0"
    },
    {
      "mesh": 0,
      "name": "RevolvingDoor_Base_LOD0_RevolvingDoor_Mat1_0"
    },
    {
      "children": [
        7
      ],
      "name": "RevolvingDoor_MainDoor_LOD0"
    },
    {
      "mesh": 1,
      "name": "RevolvingDoor_MainDoor_LOD0_RevolvingDoor_Mat1_0"
    },
    {
      "children": [
        9
      ],
      "name": "RevovlingDoor_DoorFrame_LOD0"
    },
    {
      "mesh": 2,
      "name": "RevovlingDoor_DoorFrame_LOD0_RevolvingDoor_Mat1_0"
    },
    {
      "children": [
        11
      ],
      "name": "RevolvingDoor_Base_LOD1"
    },
    {
      "mesh": 3,
      "name": "RevolvingDoor_Base_LOD1_RevolvingDoor_Mat1_0"
    },
    {
      "children": [
        13
      ],
      "name": "RevolvingDoor_MainDoor_LOD1"
    },
    {
      "mesh": 4,
      "name": "RevolvingDoor_MainDoor_LOD1_RevolvingDoor_Mat1_0"
    },
    {
      "children": [
        15
      ],
      "name": "RevovlingDoor_DoorFrame_LOD1"
    },
    {
      "mesh": 5,
      "name": "RevovlingDoor_DoorFrame_LOD1_RevolvingDoor_Mat1_0"
    },
    {
      "children": [
        17
      ],
      "name": "RevolvingDoor_Base_LOD2"
    },
    {
      "mesh": 6,
      "name": "RevolvingDoor_Base_LOD2_RevolvingDoor_Mat1_0"
    },
    {
      "children": [
        19
      ],
      "name": "RevolvingDoor_MainDoor_LOD2"
    },
    {
      "mesh": 7,
      "name": "RevolvingDoor_MainDoor_LOD2_RevolvingDoor_Mat1_0"
    },
    {
      "children": [
        21
      ],
      "name": "RevovlingDoor_DoorFrame_LOD2"
    },
    {
      "mesh": 8,
      "name": "RevovlingDoor_DoorFrame_LOD2_RevolvingDoor_Mat1_0"
    }
  ],
  "samplers": [
    {
      "magFilter": 9729,
      "minFilter": 9987,
      "wrapS": 10497,
      "wrapT": 10497
    }
  ],
  "scene": 0,
  "scenes": [
    {
      "name": "Sketchfab_Scene",
      "nodes": [
        0
      ]
    }
  ],
  "textures": [
    {
      "sampler": 0,
      "source": 0
    },
    {
      "sampler": 0,
      "source": 1
    }
  ]
}
